<svg width="24" height="24" viewBox="0 0 24 24" fill="none" xmlns="http://www.w3.org/2000/svg">
<path fill-rule="evenodd" clip-rule="evenodd" d="M8 21H4C3.44772 21 3 20.5523 3 20V16C3 15.4477 2.55228 15 2 15C1.44772 15 1 15.4477 1 16V20C1 21.6569 2.34315 23 4 23H8C8.55228 23 9 22.5523 9 22C9 21.4477 8.55228 21 8 21ZM22 15C21.4477 15 21 15.4477 21 16V20C21 20.5523 20.5523 21 20 21H16C15.4477 21 15 21.4477 15 22C15 22.5523 15.4477 23 16 23H20C21.6569 23 23 21.6569 23 20V16C23 15.4477 22.5523 15 22 15ZM20 1H16C15.4477 1 15 1.44772 15 2C15 2.55228 15.4477 3 16 3H20C20.5523 3 21 3.44772 21 4V8C21 8.55228 21.4477 9 22 9C22.5523 9 23 8.55228 23 8V4C23 2.34315 21.6569 1 20 1ZM2 9C2.55228 9 3 8.55228 3 8V4C3 3.44772 3.44772 3 4 3H8C8.55228 3 9 2.55228 9 2C9 1.44772 8.55228 1 8 1H4C2.34315 1 1 2.34315 1 4V8C1 8.55228 1.44772 9 2 9ZM10 5H6C5.44772 5 5 5.44772 5 6V10C5 10.5523 5.44772 11 6 11H10C10.5523 11 11 10.5523 11 10V6C11 5.44772 10.5523 5 10 5ZM9 9H7V7H9V9ZM14 11H18C18.5523 11 19 10.5523 19 10V6C19 5.44772 18.5523 5 18 5H14C13.4477 5 13 5.44772 13 6V10C13 10.5523 13.4477 11 14 11ZM15 7H17V9H15V7ZM10 13H6C5.44772 13 5 13.4477 5 14V18C5 18.5523 5.44772 19 6 19H10C10.5523 19 11 18.5523 11 18V14C11 13.4477 10.5523 13 10 13ZM9 17H7V15H9V17ZM14 16C14.5523 16 15 15.5523 15 15C15.5523 15 16 14.5523 16 14C16 13.4477 15.5523 13 15 13H14C13.4477 13 13 13.4477 13 14V15C13 15.5523 13.4477 16 14 16ZM18 13C17.4477 13 17 13.4477 17 14V17C16.4477 17 16 17.4477 16 18C16 18.5523 16.4477 19 17 19H18C18.5523 19 19 18.5523 19 18V14C19 13.4477 18.5523 13 18 13ZM14 17C13.4477 17 13 17.4477 13 18C13 18.5523 13.4477 19 14 19C14.5523 19 15 18.5523 15 18C15 17.4477 14.5523 17 14 17Z" fill="#C5CAD3"/>
</svg>
